<svg width="20" height="31" viewBox="0 0 20 31" fill="none" xmlns="http://www.w3.org/2000/svg">
<path fill-rule="evenodd" clip-rule="evenodd" d="M11.3401 10.4917C11.1907 10.3419 11.1068 10.139 11.1068 9.92749C11.1068 9.71595 11.1907 9.51305 11.3401 9.36328L14.9159 5.78643C14.9901 5.71215 15.0782 5.65322 15.1752 5.61301C15.2722 5.5728 15.3762 5.55211 15.4812 5.55211C15.5862 5.55211 15.6901 5.5728 15.7871 5.61301C15.8841 5.65322 15.9722 5.71215 16.0464 5.78643L19.6212 9.36328C19.6953 9.43737 19.754 9.52533 19.7941 9.62214C19.8342 9.71894 19.8549 9.8227 19.8549 9.92749C19.8549 10.0323 19.8342 10.136 19.7941 10.2328C19.754 10.3296 19.6953 10.4176 19.6212 10.4917L16.0464 14.0685C15.9722 14.1428 15.8841 14.2018 15.7871 14.242C15.6901 14.2822 15.5862 14.3029 15.4812 14.3029C15.3762 14.3029 15.2722 14.2822 15.1752 14.242C15.0782 14.2018 14.9901 14.1428 14.9159 14.0685L11.3401 10.4917ZM9.36328 8.51591L5.78749 4.94012C5.71295 4.86606 5.65379 4.77799 5.61343 4.68098C5.57306 4.58397 5.55228 4.47993 5.55228 4.37486C5.55228 4.26978 5.57306 4.16574 5.61343 4.06873C5.65379 3.97172 5.71295 3.88365 5.78749 3.80959L9.36328 0.233802C9.51309 0.0840953 9.71622 0 9.92801 0C10.1398 0 10.3429 0.0840953 10.4928 0.233802L14.0696 3.80959C14.1439 3.88379 14.2028 3.97191 14.243 4.0689C14.2832 4.16589 14.3039 4.26986 14.3039 4.37486C14.3039 4.47985 14.2832 4.58382 14.243 4.68081C14.2028 4.7778 14.1439 4.86592 14.0696 4.94012L10.4928 8.51591C10.3429 8.66561 10.1398 8.74971 9.92801 8.74971C9.71622 8.74971 9.51309 8.66561 9.36328 8.51591ZM9.36328 11.3401C9.51309 11.1904 9.71622 11.1063 9.92801 11.1063C10.1398 11.1063 10.3429 11.1904 10.4928 11.3401L14.0696 14.9159C14.1439 14.9901 14.2028 15.0782 14.243 15.1752C14.2832 15.2722 14.3039 15.3762 14.3039 15.4812C14.3039 15.5862 14.2832 15.6901 14.243 15.7871C14.2028 15.8841 14.1439 15.9722 14.0696 16.0464L10.4928 19.6212C10.4186 19.6954 10.3306 19.7543 10.2337 19.7945C10.1368 19.8347 10.0329 19.8554 9.92801 19.8554C9.8231 19.8554 9.71922 19.8347 9.62232 19.7945C9.52541 19.7543 9.43739 19.6954 9.36328 19.6212L5.78749 16.0464C5.71295 15.9724 5.65379 15.8843 5.61343 15.7873C5.57306 15.6903 5.55228 15.5862 5.55228 15.4812C5.55228 15.3761 5.57306 15.2721 5.61343 15.175C5.65379 15.078 5.71295 14.99 5.78749 14.9159L9.36328 11.3401ZM3.81064 14.0685L0.234855 10.4928C0.160569 10.4185 0.101638 10.3304 0.0614297 10.2334C0.0212218 10.1364 0.000526206 10.0325 0.000526206 9.92749C0.000526206 9.82249 0.0212218 9.71852 0.0614297 9.62153C0.101638 9.52454 0.160569 9.43642 0.234855 9.36222L3.81064 5.78749C3.88476 5.71323 3.97278 5.65432 4.06969 5.61413C4.16659 5.57394 4.27047 5.55325 4.37538 5.55325C4.48029 5.55325 4.58417 5.57394 4.68108 5.61413C4.77798 5.65432 4.86601 5.71323 4.94012 5.78749L8.51591 9.36222C8.66568 9.51222 8.7498 9.71552 8.7498 9.92749C8.7498 10.1395 8.66568 10.3428 8.51591 10.4928L4.93907 14.0685C4.78925 14.2182 4.58612 14.3023 4.37433 14.3023C4.16253 14.3023 3.96046 14.2182 3.81064 14.0685ZM16.0464 16.8928L19.6212 20.4685C19.6956 20.5426 19.7546 20.6306 19.7948 20.7275C19.8351 20.8244 19.8559 20.9283 19.8559 21.0333C19.8559 21.1382 19.8351 21.2421 19.7948 21.3391C19.7546 21.436 19.6956 21.524 19.6212 21.598L16.0464 25.1749C15.8966 25.3246 15.6935 25.4087 15.4817 25.4087C15.2699 25.4087 15.0668 25.3246 14.917 25.1749L11.3401 21.598C11.1907 21.4481 11.1068 21.245 11.1068 21.0333C11.1068 20.8216 11.1907 20.6185 11.3401 20.4685L14.917 16.8928C15.0668 16.743 15.2699 16.6589 15.4817 16.6589C15.6935 16.6589 15.8966 16.743 16.0464 16.8928ZM10.4928 22.4454L14.0685 26.0212C14.1431 26.0952 14.2022 26.1833 14.2426 26.2803C14.283 26.3773 14.3037 26.4814 14.3037 26.5864C14.3037 26.6915 14.283 26.7955 14.2426 26.8926C14.2022 26.9896 14.1431 27.0776 14.0685 27.1517L10.4928 30.7264C10.3429 30.8761 10.1398 30.9602 9.92801 30.9602C9.71622 30.9602 9.51309 30.8761 9.36328 30.7264L5.78749 27.1506C5.7132 27.0764 5.65427 26.9883 5.61406 26.8913C5.57385 26.7943 5.55316 26.6904 5.55316 26.5854C5.55316 26.4804 5.57385 26.3764 5.61406 26.2794C5.65427 26.1824 5.7132 26.0943 5.78749 26.0201L9.36328 22.4443C9.51309 22.2946 9.71622 22.2105 9.92801 22.2105C10.1398 22.2105 10.3429 22.2957 10.4928 22.4454ZM8.51591 20.4685C8.66561 20.6184 8.74971 20.8215 8.74971 21.0333C8.74971 21.2451 8.66561 21.4482 8.51591 21.598L4.94012 25.1749C4.79017 25.3243 4.58709 25.4082 4.37538 25.4082C4.16367 25.4082 3.9606 25.3243 3.81064 25.1749L0.233802 21.598C0.0840953 21.4482 0 21.2451 0 21.0333C0 20.8215 0.0840953 20.6184 0.233802 20.4685L3.81064 16.8928C3.96046 16.743 4.16359 16.6589 4.37538 16.6589C4.58717 16.6589 4.7903 16.743 4.94012 16.8928L8.51591 20.4685Z" fill="#E6C3A5"/>
</svg>
